<svg width="506" height="442" viewBox="0 0 506 442" fill="none" xmlns="http://www.w3.org/2000/svg">
<g clip-path="url(#clip0_1_150)">
<path d="M456.229 230.024C456.295 284.717 435.216 337.305 397.422 376.735C395.143 379.127 392.803 381.462 390.402 383.739C386.743 387.23 382.961 390.585 379.056 393.804C342.53 423.984 296.93 440.944 249.614 441.946C248.038 441.982 246.455 442 244.867 442C207.131 442 159.669 421.786 116.597 393.804C113.033 391.489 109.501 389.121 106.001 386.699C104.365 385.577 102.737 384.439 101.117 383.286C84.5046 371.522 68.7363 358.603 53.9281 344.624C44.2326 335.499 35.1409 325.749 26.7106 315.437C-6.38465 274.497 -13.6843 237.607 33.4986 230.024C39.0849 229.129 44.5066 228.172 49.7637 227.154C57.3786 225.686 64.6664 224.101 71.6269 222.399C81.0028 220.114 89.8115 217.636 98.0532 214.965C100.825 214.07 103.534 213.157 106.18 212.226C145.29 198.45 171.466 180.486 189.284 160.994C192.306 157.695 195.092 154.355 197.642 150.977C201.544 145.833 205.088 140.427 208.25 134.796C212.613 126.972 216.278 118.776 219.202 110.304L219.363 109.839C233.54 68.8268 229.227 30.7857 244.867 18.0537C311.724 -36.3767 394.959 41.1372 434.027 132.547C435.996 137.153 437.848 141.786 439.583 146.448C440.363 148.53 441.114 150.617 441.838 152.707C443.742 158.154 445.469 163.615 447.02 169.09C447.615 171.178 448.182 173.265 448.721 175.349C449.298 177.598 449.852 179.841 450.363 182.085C454.165 198.51 456.229 214.708 456.229 230.024Z" fill="#F2F2F2"/>
<path d="M249.614 441.946C248.038 441.982 246.455 442 244.867 442C207.131 442 159.669 421.786 116.597 393.804C113.033 391.489 109.501 389.121 106.001 386.699L109.071 367.964L202.003 355.59L248.645 391.358L249.614 441.946Z" fill="#2F2E41"/>
<path d="M254.088 107.423H240.845C240.435 107.423 240.042 107.586 239.752 107.877C239.462 108.168 239.299 108.563 239.299 108.974V122.261C239.299 122.464 239.339 122.665 239.417 122.853C239.495 123.041 239.609 123.212 239.752 123.355C239.896 123.499 240.067 123.612 240.254 123.69C240.442 123.767 240.642 123.807 240.845 123.806H254.088C254.497 123.806 254.89 123.644 255.18 123.354C255.47 123.064 255.634 122.671 255.635 122.261V108.974C255.634 108.563 255.47 108.169 255.181 107.878C254.891 107.588 254.498 107.424 254.088 107.423Z" fill="white"/>
<path d="M254.088 130.065H240.845C240.435 130.065 240.042 130.228 239.752 130.519C239.462 130.81 239.299 131.205 239.299 131.616V144.903C239.299 145.106 239.339 145.308 239.417 145.495C239.495 145.683 239.609 145.854 239.752 145.997C239.896 146.141 240.067 146.254 240.254 146.332C240.442 146.409 240.642 146.449 240.845 146.448H254.088C254.497 146.448 254.89 146.286 255.18 145.996C255.47 145.706 255.634 145.313 255.635 144.903V131.616C255.634 131.205 255.47 130.811 255.181 130.52C254.891 130.23 254.498 130.066 254.088 130.065Z" fill="#E6E6E6"/>
<path d="M254.088 152.707H240.845C240.435 152.707 240.042 152.871 239.752 153.161C239.462 153.452 239.299 153.847 239.299 154.258V167.539C239.298 167.743 239.338 167.945 239.415 168.133C239.493 168.321 239.607 168.493 239.751 168.637C239.894 168.781 240.065 168.895 240.253 168.973C240.441 169.051 240.642 169.091 240.845 169.09H254.088C254.498 169.09 254.892 168.927 255.182 168.636C255.472 168.345 255.635 167.95 255.635 167.539V154.258C255.634 153.847 255.47 153.453 255.181 153.162C254.891 152.872 254.498 152.708 254.088 152.707Z" fill="#E6E6E6"/>
<path d="M255.611 176.626C255.545 176.268 255.357 175.945 255.079 175.712C254.801 175.479 254.45 175.351 254.088 175.349H240.845C240.435 175.349 240.042 175.513 239.752 175.803C239.462 176.094 239.299 176.489 239.299 176.9V190.181C239.298 190.385 239.338 190.587 239.415 190.775C239.493 190.964 239.607 191.135 239.751 191.279C239.894 191.423 240.065 191.537 240.253 191.615C240.441 191.693 240.642 191.733 240.845 191.732H254.088C254.498 191.732 254.892 191.569 255.182 191.278C255.472 190.987 255.635 190.592 255.635 190.181V176.9C255.636 176.808 255.628 176.716 255.611 176.626Z" fill="#E6E6E6"/>
<path d="M254.689 198.11C254.498 198.031 254.294 197.991 254.088 197.991H240.845C240.642 197.991 240.441 198.03 240.253 198.108C240.065 198.186 239.894 198.3 239.751 198.444C239.607 198.588 239.493 198.76 239.415 198.948C239.338 199.136 239.298 199.338 239.299 199.542V212.823C239.298 213.027 239.337 213.229 239.414 213.418C239.492 213.606 239.606 213.778 239.75 213.922C239.893 214.066 240.064 214.18 240.252 214.258C240.44 214.336 240.642 214.375 240.845 214.374H254.088C254.498 214.374 254.892 214.211 255.182 213.92C255.472 213.629 255.635 213.234 255.635 212.823V199.542C255.634 199.237 255.544 198.938 255.376 198.684C255.208 198.429 254.969 198.23 254.689 198.11Z" fill="#E6E6E6"/>
<path d="M281.907 107.423H268.664C268.253 107.423 267.86 107.586 267.57 107.877C267.28 108.168 267.117 108.563 267.117 108.974V122.261C267.117 122.464 267.157 122.665 267.235 122.853C267.313 123.041 267.427 123.212 267.571 123.355C267.714 123.499 267.885 123.612 268.072 123.69C268.26 123.767 268.461 123.807 268.664 123.806H281.907C282.316 123.806 282.708 123.644 282.998 123.354C283.288 123.064 283.452 122.671 283.453 122.261V108.974C283.452 108.563 283.289 108.169 282.999 107.878C282.709 107.588 282.316 107.424 281.907 107.423Z" fill="#E6E6E6"/>
<path d="M281.907 130.065H268.664C268.253 130.065 267.86 130.228 267.57 130.519C267.28 130.81 267.117 131.205 267.117 131.616V144.903C267.117 145.106 267.157 145.308 267.235 145.495C267.313 145.683 267.427 145.854 267.571 145.997C267.714 146.141 267.885 146.254 268.072 146.332C268.26 146.409 268.461 146.449 268.664 146.448H281.907C282.316 146.448 282.708 146.286 282.998 145.996C283.288 145.706 283.452 145.313 283.453 144.903V131.616C283.452 131.205 283.289 130.811 282.999 130.52C282.709 130.23 282.316 130.066 281.907 130.065Z" fill="#6C63FF"/>
<path d="M281.907 152.707H268.664C268.253 152.707 267.86 152.871 267.57 153.161C267.28 153.452 267.117 153.847 267.117 154.258V167.539C267.117 167.743 267.156 167.945 267.234 168.133C267.311 168.321 267.425 168.493 267.569 168.637C267.713 168.781 267.883 168.895 268.071 168.973C268.259 169.051 268.46 169.091 268.664 169.09H281.907C282.317 169.09 282.71 168.927 283 168.636C283.29 168.345 283.453 167.95 283.453 167.539V154.258C283.452 153.847 283.289 153.453 282.999 153.162C282.709 152.872 282.316 152.708 281.907 152.707Z" fill="#6C63FF"/>
<path d="M281.907 175.349H268.664C268.339 175.349 268.023 175.452 267.761 175.642C267.498 175.833 267.302 176.102 267.2 176.411C267.145 176.568 267.117 176.733 267.117 176.9V190.181C267.117 190.385 267.156 190.587 267.234 190.775C267.311 190.964 267.425 191.135 267.569 191.279C267.713 191.423 267.883 191.537 268.071 191.615C268.259 191.693 268.46 191.733 268.664 191.732H281.907C282.317 191.732 282.71 191.569 283 191.278C283.29 190.987 283.453 190.592 283.453 190.181V176.9C283.452 176.489 283.289 176.095 282.999 175.805C282.709 175.514 282.316 175.35 281.907 175.349Z" fill="#6C63FF"/>
<path d="M281.907 197.991H268.664C268.46 197.991 268.259 198.03 268.071 198.108C267.883 198.186 267.713 198.3 267.569 198.444C267.425 198.588 267.311 198.76 267.234 198.948C267.156 199.136 267.117 199.338 267.117 199.542V212.823C267.117 213.027 267.156 213.229 267.234 213.417C267.311 213.606 267.425 213.777 267.569 213.921C267.713 214.065 267.883 214.179 268.071 214.257C268.259 214.335 268.46 214.375 268.664 214.374H281.907C282.317 214.374 282.71 214.211 283 213.92C283.29 213.629 283.453 213.234 283.453 212.823V199.542C283.453 199.131 283.29 198.736 283 198.445C282.71 198.155 282.317 197.991 281.907 197.991Z" fill="#E6E6E6"/>
<path d="M309.725 107.423H296.482C296.072 107.423 295.679 107.586 295.389 107.877C295.099 108.168 294.935 108.563 294.935 108.974V122.261C294.936 122.464 294.976 122.665 295.054 122.853C295.131 123.041 295.245 123.212 295.389 123.355C295.533 123.499 295.703 123.612 295.891 123.69C296.078 123.767 296.279 123.807 296.482 123.806H309.725C310.134 123.806 310.527 123.644 310.817 123.354C311.107 123.064 311.27 122.671 311.272 122.261V108.974C311.27 108.563 311.107 108.169 310.817 107.878C310.527 107.588 310.135 107.424 309.725 107.423Z" fill="#6C63FF"/>
<path d="M309.725 130.065H296.482C296.072 130.065 295.679 130.228 295.388 130.519C295.098 130.81 294.935 131.205 294.935 131.616V144.903C294.935 145.106 294.976 145.308 295.054 145.495C295.131 145.683 295.245 145.854 295.389 145.997C295.533 146.141 295.703 146.254 295.891 146.332C296.078 146.409 296.279 146.449 296.482 146.448H309.725C310.134 146.448 310.527 146.286 310.817 145.996C311.107 145.706 311.27 145.313 311.272 144.903V131.616C311.271 131.205 311.107 130.811 310.817 130.52C310.527 130.23 310.135 130.066 309.725 130.065Z" fill="#6C63FF"/>
<path d="M309.725 152.707H296.482C296.072 152.707 295.679 152.871 295.389 153.161C295.098 153.452 294.935 153.847 294.935 154.258V167.539C294.935 167.743 294.975 167.945 295.052 168.133C295.13 168.321 295.244 168.493 295.387 168.637C295.531 168.781 295.702 168.895 295.89 168.973C296.077 169.051 296.279 169.091 296.482 169.09H309.725C310.135 169.09 310.528 168.927 310.818 168.636C311.108 168.345 311.272 167.95 311.272 167.539V154.258C311.271 153.847 311.107 153.453 310.817 153.162C310.527 152.872 310.135 152.708 309.725 152.707Z" fill="#E6E6E6"/>
<path d="M309.725 175.349H296.482C296.072 175.349 295.679 175.513 295.389 175.803C295.099 176.094 294.935 176.489 294.935 176.9V190.181C294.935 190.385 294.975 190.587 295.052 190.775C295.13 190.964 295.244 191.135 295.387 191.279C295.531 191.423 295.702 191.537 295.89 191.615C296.077 191.693 296.279 191.733 296.482 191.732H309.725C310.135 191.732 310.528 191.569 310.818 191.278C311.108 190.987 311.272 190.592 311.272 190.181V176.9C311.271 176.489 311.107 176.095 310.817 175.805C310.527 175.514 310.135 175.35 309.725 175.349Z" fill="#6C63FF"/>
<path d="M309.725 197.991H296.482C296.279 197.991 296.077 198.03 295.89 198.108C295.702 198.186 295.531 198.3 295.387 198.444C295.244 198.588 295.13 198.76 295.052 198.948C294.975 199.136 294.935 199.338 294.935 199.542V212.823C294.935 213.027 294.975 213.229 295.052 213.417C295.13 213.606 295.244 213.777 295.387 213.921C295.531 214.065 295.702 214.179 295.89 214.257C296.077 214.335 296.279 214.375 296.482 214.374H309.725C310.135 214.374 310.528 214.211 310.818 213.92C311.108 213.629 311.272 213.234 311.272 212.823V199.542C311.272 199.131 311.108 198.736 310.818 198.445C310.528 198.155 310.135 197.991 309.725 197.991Z" fill="#6C63FF"/>
<path d="M337.543 107.423H324.3C323.89 107.423 323.497 107.586 323.207 107.877C322.917 108.168 322.754 108.563 322.754 108.974V122.261C322.754 122.464 322.794 122.666 322.872 122.853C322.95 123.041 323.064 123.212 323.207 123.355C323.351 123.499 323.522 123.612 323.709 123.69C323.897 123.767 324.098 123.807 324.3 123.806H337.543C337.952 123.806 338.345 123.644 338.635 123.354C338.925 123.064 339.089 122.671 339.09 122.261V108.974C339.089 108.563 338.925 108.169 338.636 107.878C338.346 107.588 337.953 107.424 337.543 107.423Z" fill="#6C63FF"/>
<path d="M337.543 130.065H324.3C323.89 130.065 323.497 130.228 323.207 130.519C322.917 130.81 322.754 131.205 322.754 131.616V144.903C322.754 145.106 322.794 145.308 322.872 145.495C322.95 145.683 323.064 145.854 323.207 145.997C323.351 146.141 323.522 146.254 323.709 146.332C323.897 146.409 324.098 146.449 324.3 146.448H337.543C337.952 146.448 338.345 146.286 338.635 145.996C338.925 145.706 339.089 145.313 339.09 144.903V131.616C339.089 131.205 338.925 130.811 338.636 130.52C338.346 130.23 337.953 130.066 337.543 130.065Z" fill="white"/>
<path d="M337.543 152.707H324.3C323.89 152.707 323.497 152.87 323.207 153.161C322.917 153.452 322.754 153.847 322.754 154.258V167.539C322.753 167.743 322.793 167.945 322.87 168.133C322.948 168.322 323.062 168.493 323.206 168.637C323.349 168.781 323.52 168.895 323.708 168.973C323.896 169.051 324.097 169.091 324.3 169.09H337.543C337.953 169.09 338.347 168.927 338.637 168.636C338.927 168.345 339.09 167.95 339.09 167.539V154.258C339.089 153.847 338.925 153.453 338.636 153.162C338.346 152.872 337.953 152.708 337.543 152.707Z" fill="white"/>
<path d="M337.543 175.349H324.3C323.89 175.349 323.497 175.513 323.207 175.803C322.917 176.094 322.754 176.489 322.754 176.9V190.181C322.753 190.385 322.793 190.587 322.87 190.775C322.948 190.964 323.062 191.135 323.206 191.279C323.349 191.423 323.52 191.537 323.708 191.615C323.896 191.693 324.097 191.733 324.3 191.732H337.543C337.953 191.732 338.347 191.569 338.637 191.278C338.927 190.987 339.09 190.592 339.09 190.181V176.9C339.089 176.489 338.925 176.095 338.636 175.805C338.346 175.514 337.953 175.35 337.543 175.349Z" fill="#E6E6E6"/>
<path d="M337.543 197.991H324.3C324.097 197.991 323.896 198.03 323.708 198.108C323.52 198.186 323.349 198.3 323.206 198.444C323.062 198.588 322.948 198.76 322.87 198.948C322.793 199.136 322.753 199.338 322.754 199.542V212.823C322.753 213.027 322.793 213.229 322.87 213.417C322.948 213.606 323.062 213.777 323.206 213.921C323.349 214.065 323.52 214.179 323.708 214.257C323.896 214.335 324.097 214.375 324.3 214.374H337.543C337.953 214.374 338.347 214.211 338.637 213.92C338.927 213.629 339.09 213.234 339.09 212.823V199.542C339.09 199.131 338.927 198.736 338.637 198.445C338.347 198.155 337.953 197.991 337.543 197.991Z" fill="#6C63FF"/>
<path d="M365.361 107.423H352.113C351.703 107.424 351.311 107.588 351.023 107.879C350.734 108.17 350.572 108.563 350.572 108.974V122.261C350.572 122.671 350.734 123.064 351.023 123.353C351.312 123.643 351.704 123.806 352.113 123.806H365.361C365.771 123.806 366.163 123.644 366.453 123.354C366.743 123.064 366.907 122.671 366.908 122.261V108.974C366.907 108.563 366.744 108.169 366.454 107.878C366.164 107.588 365.771 107.424 365.361 107.423Z" fill="white"/>
<path d="M365.361 130.065H352.113C351.703 130.066 351.311 130.23 351.023 130.521C350.734 130.812 350.572 131.206 350.572 131.616V144.903C350.572 145.313 350.734 145.706 351.023 145.995C351.312 146.285 351.704 146.448 352.113 146.448H365.361C365.771 146.448 366.163 146.286 366.453 145.996C366.743 145.706 366.907 145.313 366.908 144.903V131.616C366.907 131.205 366.744 130.811 366.454 130.52C366.164 130.23 365.771 130.066 365.361 130.065Z" fill="white"/>
<path d="M365.361 152.707H352.113C351.703 152.708 351.311 152.872 351.023 153.163C350.734 153.454 350.572 153.848 350.572 154.258V167.539C350.571 167.742 350.611 167.944 350.688 168.132C350.765 168.32 350.878 168.491 351.021 168.635C351.165 168.779 351.335 168.893 351.522 168.972C351.709 169.05 351.91 169.09 352.113 169.09H365.361C365.772 169.09 366.165 168.927 366.455 168.636C366.745 168.345 366.908 167.95 366.908 167.539V154.258C366.907 153.847 366.744 153.453 366.454 153.162C366.164 152.872 365.771 152.708 365.361 152.707Z" fill="white"/>
<path d="M365.361 175.349H352.113C351.703 175.35 351.311 175.514 351.023 175.805C350.734 176.096 350.572 176.49 350.572 176.9V190.181C350.571 190.384 350.611 190.586 350.688 190.774C350.765 190.962 350.878 191.133 351.021 191.277C351.165 191.421 351.335 191.536 351.522 191.614C351.709 191.692 351.91 191.732 352.113 191.732H365.361C365.772 191.732 366.165 191.569 366.455 191.278C366.745 190.987 366.908 190.592 366.908 190.181V176.9C366.907 176.489 366.744 176.095 366.454 175.805C366.164 175.514 365.771 175.35 365.361 175.349Z" fill="#6C63FF"/>
<path d="M365.361 197.991H352.113C351.91 197.991 351.709 198.031 351.522 198.11C351.335 198.188 351.165 198.302 351.021 198.446C350.878 198.59 350.765 198.761 350.688 198.949C350.611 199.137 350.571 199.339 350.572 199.542V212.823C350.571 213.026 350.611 213.228 350.688 213.416C350.765 213.604 350.878 213.775 351.021 213.919C351.165 214.063 351.335 214.178 351.522 214.256C351.709 214.334 351.91 214.374 352.113 214.374H365.361C365.772 214.374 366.165 214.211 366.455 213.92C366.745 213.629 366.908 213.234 366.908 212.823V199.542C366.908 199.131 366.745 198.736 366.455 198.445C366.165 198.155 365.772 197.991 365.361 197.991Z" fill="#E6E6E6"/>
<path d="M393.18 107.423H379.931C379.522 107.424 379.13 107.588 378.841 107.879C378.552 108.17 378.39 108.563 378.39 108.974V122.261C378.39 122.671 378.553 123.064 378.842 123.353C379.13 123.643 379.522 123.806 379.931 123.806H393.18C393.589 123.806 393.982 123.644 394.272 123.354C394.562 123.064 394.725 122.671 394.727 122.261V108.974C394.725 108.563 394.562 108.169 394.272 107.878C393.982 107.588 393.59 107.424 393.18 107.423Z" fill="white"/>
<path d="M393.18 130.065H379.931C379.522 130.066 379.13 130.23 378.841 130.521C378.552 130.812 378.39 131.206 378.39 131.616V144.903C378.39 145.313 378.553 145.706 378.842 145.995C379.13 146.285 379.522 146.448 379.931 146.448H393.18C393.589 146.448 393.982 146.286 394.272 145.996C394.562 145.706 394.725 145.313 394.727 144.903V131.616C394.725 131.205 394.562 130.811 394.272 130.52C393.982 130.23 393.59 130.066 393.18 130.065Z" fill="white"/>
<path d="M393.18 152.707H379.931C379.522 152.708 379.13 152.872 378.841 153.163C378.552 153.454 378.39 153.848 378.39 154.258V167.539C378.39 167.742 378.429 167.944 378.506 168.132C378.583 168.32 378.697 168.491 378.84 168.635C378.983 168.779 379.153 168.893 379.34 168.972C379.527 169.05 379.728 169.09 379.931 169.09H393.18C393.59 169.09 393.983 168.927 394.273 168.636C394.563 168.345 394.726 167.95 394.727 167.539V154.258C394.725 153.847 394.562 153.453 394.272 153.162C393.982 152.872 393.59 152.708 393.18 152.707Z" fill="#6C63FF"/>
<path d="M393.18 175.349H379.931C379.522 175.35 379.13 175.514 378.841 175.805C378.552 176.096 378.39 176.49 378.39 176.9V190.181C378.39 190.384 378.429 190.586 378.506 190.774C378.583 190.962 378.697 191.133 378.84 191.277C378.983 191.421 379.153 191.536 379.34 191.614C379.527 191.692 379.728 191.732 379.931 191.732H393.18C393.59 191.732 393.983 191.569 394.273 191.278C394.563 190.987 394.726 190.592 394.727 190.181V176.9C394.725 176.489 394.562 176.095 394.272 175.805C393.982 175.514 393.59 175.35 393.18 175.349Z" fill="#E6E6E6"/>
<path d="M393.18 197.991H379.931C379.728 197.991 379.527 198.031 379.34 198.11C379.153 198.188 378.983 198.302 378.84 198.446C378.697 198.59 378.583 198.761 378.506 198.949C378.429 199.137 378.39 199.339 378.39 199.542V212.823C378.39 213.026 378.429 213.228 378.506 213.416C378.583 213.604 378.697 213.775 378.84 213.919C378.983 214.063 379.153 214.178 379.34 214.256C379.527 214.334 379.728 214.374 379.931 214.374H393.18C393.59 214.374 393.983 214.211 394.273 213.92C394.563 213.629 394.726 213.234 394.727 212.823V199.542C394.726 199.131 394.563 198.736 394.273 198.445C393.983 198.155 393.59 197.991 393.18 197.991Z" fill="white"/>
<path d="M420.998 107.423H407.749C407.34 107.424 406.948 107.588 406.659 107.879C406.37 108.17 406.208 108.563 406.208 108.974V122.261C406.209 122.671 406.371 123.064 406.66 123.353C406.949 123.643 407.341 123.806 407.749 123.806H420.998C421.407 123.806 421.8 123.644 422.09 123.354C422.38 123.064 422.544 122.671 422.545 122.261V108.974C422.544 108.563 422.38 108.169 422.091 107.878C421.801 107.588 421.408 107.424 420.998 107.423Z" fill="#6C63FF"/>
<path d="M420.998 130.065H407.749C407.34 130.066 406.948 130.23 406.659 130.521C406.37 130.812 406.208 131.206 406.208 131.616V144.903C406.209 145.313 406.371 145.706 406.66 145.995C406.949 146.285 407.341 146.448 407.749 146.448H420.998C421.407 146.448 421.8 146.286 422.09 145.996C422.38 145.706 422.544 145.313 422.545 144.903V131.616C422.544 131.205 422.38 130.811 422.091 130.52C421.801 130.23 421.408 130.066 420.998 130.065Z" fill="#6C63FF"/>
<path d="M420.998 152.707H407.749C407.34 152.708 406.948 152.872 406.659 153.163C406.37 153.454 406.208 153.848 406.209 154.258V167.539C406.208 167.742 406.247 167.944 406.325 168.132C406.402 168.32 406.515 168.491 406.658 168.635C406.801 168.779 406.971 168.893 407.159 168.972C407.346 169.05 407.547 169.09 407.749 169.09H420.998C421.408 169.09 421.802 168.927 422.092 168.636C422.382 168.345 422.545 167.95 422.545 167.539V154.258C422.544 153.847 422.38 153.453 422.091 153.162C421.801 152.872 421.408 152.708 420.998 152.707Z" fill="#E6E6E6"/>
<path d="M420.998 175.349H407.749C407.34 175.35 406.948 175.514 406.659 175.805C406.37 176.096 406.208 176.49 406.209 176.9V190.181C406.208 190.384 406.247 190.586 406.325 190.774C406.402 190.962 406.515 191.133 406.658 191.277C406.801 191.421 406.971 191.536 407.159 191.614C407.346 191.692 407.547 191.732 407.749 191.732H420.998C421.408 191.732 421.802 191.569 422.092 191.278C422.382 190.987 422.545 190.592 422.545 190.181V176.9C422.544 176.489 422.38 176.095 422.091 175.805C421.801 175.514 421.408 175.35 420.998 175.349Z" fill="white"/>
<path d="M420.998 197.991H407.749C407.547 197.991 407.346 198.031 407.159 198.11C406.971 198.188 406.801 198.302 406.658 198.446C406.515 198.59 406.402 198.761 406.325 198.949C406.247 199.137 406.208 199.339 406.209 199.542V212.823C406.208 213.026 406.247 213.228 406.325 213.416C406.402 213.604 406.515 213.775 406.658 213.919C406.801 214.063 406.971 214.178 407.159 214.256C407.346 214.334 407.547 214.374 407.749 214.374H420.998C421.408 214.374 421.802 214.211 422.092 213.92C422.382 213.629 422.545 213.234 422.545 212.823V199.542C422.545 199.131 422.382 198.736 422.092 198.445C421.802 198.155 421.408 197.991 420.998 197.991Z" fill="#6C63FF"/>
<path d="M448.816 107.423H435.568C435.158 107.424 434.766 107.588 434.478 107.879C434.189 108.17 434.027 108.563 434.027 108.974V122.261C434.027 122.671 434.189 123.064 434.478 123.353C434.767 123.643 435.159 123.806 435.568 123.806H448.816C449.226 123.806 449.618 123.644 449.908 123.354C450.198 123.064 450.362 122.671 450.363 122.261V108.974C450.362 108.563 450.199 108.169 449.909 107.878C449.619 107.588 449.226 107.424 448.816 107.423Z" fill="#6C63FF"/>
<path d="M448.816 130.065H435.568C435.158 130.066 434.766 130.23 434.478 130.521C434.189 130.812 434.027 131.206 434.027 131.616V144.903C434.027 145.313 434.189 145.706 434.478 145.995C434.767 146.285 435.159 146.448 435.568 146.448H448.816C449.226 146.448 449.618 146.286 449.908 145.996C450.198 145.706 450.362 145.313 450.363 144.903V131.616C450.362 131.205 450.199 130.811 449.909 130.52C449.619 130.23 449.226 130.066 448.816 130.065Z" fill="#6C63FF"/>
<path d="M448.817 152.707H435.568C435.158 152.708 434.766 152.872 434.478 153.163C434.189 153.454 434.027 153.848 434.027 154.258V167.539C434.026 167.742 434.066 167.944 434.143 168.132C434.22 168.32 434.333 168.491 434.477 168.635C434.62 168.779 434.79 168.893 434.977 168.972C435.164 169.05 435.365 169.09 435.568 169.09H448.817C449.227 169.09 449.62 168.927 449.91 168.636C450.2 168.345 450.363 167.95 450.363 167.539V154.258C450.362 153.847 450.199 153.453 449.909 153.162C449.619 152.872 449.226 152.708 448.817 152.707Z" fill="#E6E6E6"/>
<path d="M448.817 175.349H435.568C435.158 175.35 434.766 175.514 434.478 175.805C434.189 176.096 434.027 176.49 434.027 176.9V190.181C434.026 190.384 434.066 190.586 434.143 190.774C434.22 190.962 434.333 191.133 434.477 191.277C434.62 191.421 434.79 191.536 434.977 191.614C435.164 191.692 435.365 191.732 435.568 191.732H448.817C449.227 191.732 449.62 191.569 449.91 191.278C450.2 190.987 450.363 190.592 450.363 190.181V176.9C450.362 176.489 450.199 176.095 449.909 175.805C449.619 175.514 449.226 175.35 448.817 175.349Z" fill="#6C63FF"/>
<path d="M448.817 197.991H435.568C435.365 197.991 435.164 198.031 434.977 198.11C434.79 198.188 434.62 198.302 434.477 198.446C434.333 198.59 434.22 198.761 434.143 198.949C434.066 199.137 434.026 199.339 434.027 199.542V212.823C434.026 213.026 434.066 213.228 434.143 213.416C434.22 213.604 434.333 213.775 434.477 213.919C434.62 214.063 434.79 214.178 434.977 214.256C435.164 214.334 435.365 214.374 435.568 214.374H448.817C449.227 214.374 449.62 214.211 449.91 213.92C450.2 213.629 450.363 213.234 450.363 212.823V199.542C450.363 199.131 450.2 198.736 449.91 198.445C449.62 198.155 449.227 197.991 448.817 197.991Z" fill="#6C63FF"/>
<path d="M476.635 107.423H463.386C462.977 107.424 462.585 107.588 462.296 107.879C462.007 108.17 461.845 108.563 461.845 108.974V122.261C461.845 122.671 462.008 123.064 462.297 123.353C462.586 123.643 462.977 123.806 463.386 123.806H476.635C477.044 123.806 477.437 123.644 477.727 123.354C478.017 123.064 478.18 122.671 478.182 122.261V108.974C478.18 108.563 478.017 108.169 477.727 107.878C477.437 107.588 477.045 107.424 476.635 107.423Z" fill="#E6E6E6"/>
<path d="M476.635 130.065H463.386C462.977 130.066 462.585 130.23 462.296 130.521C462.007 130.812 461.845 131.206 461.845 131.616V144.903C461.845 145.313 462.008 145.706 462.297 145.995C462.586 146.285 462.977 146.448 463.386 146.448H476.635C477.044 146.448 477.437 146.286 477.727 145.996C478.017 145.706 478.18 145.313 478.182 144.903V131.616C478.18 131.205 478.017 130.811 477.727 130.52C477.437 130.23 477.045 130.066 476.635 130.065Z" fill="#6C63FF"/>
<path d="M476.635 152.707H463.386C462.977 152.708 462.585 152.872 462.296 153.163C462.007 153.454 461.845 153.848 461.845 154.258V167.539C461.845 167.742 461.884 167.944 461.961 168.132C462.038 168.32 462.152 168.491 462.295 168.635C462.438 168.779 462.608 168.893 462.795 168.972C462.983 169.05 463.183 169.09 463.386 169.09H476.635C477.045 169.09 477.438 168.927 477.728 168.636C478.018 168.345 478.181 167.95 478.182 167.539V154.258C478.18 153.847 478.017 153.453 477.727 153.162C477.437 152.872 477.045 152.708 476.635 152.707Z" fill="#6C63FF"/>
<path d="M476.635 175.349H463.386C462.977 175.35 462.585 175.514 462.296 175.805C462.007 176.096 461.845 176.49 461.845 176.9V190.181C461.845 190.384 461.884 190.586 461.961 190.774C462.038 190.962 462.152 191.133 462.295 191.277C462.438 191.421 462.608 191.536 462.795 191.614C462.982 191.692 463.183 191.732 463.386 191.732H476.635C477.045 191.732 477.438 191.569 477.728 191.278C478.018 190.987 478.181 190.592 478.182 190.181V176.9C478.18 176.489 478.017 176.095 477.727 175.805C477.437 175.514 477.045 175.35 476.635 175.349Z" fill="#6C63FF"/>
<path d="M476.635 197.991H463.386C463.183 197.991 462.982 198.031 462.795 198.11C462.608 198.188 462.438 198.302 462.295 198.446C462.152 198.59 462.038 198.761 461.961 198.949C461.884 199.137 461.845 199.339 461.845 199.542V212.823C461.845 213.026 461.884 213.228 461.961 213.416C462.038 213.604 462.152 213.775 462.295 213.919C462.438 214.063 462.608 214.178 462.795 214.256C462.982 214.334 463.183 214.374 463.386 214.374H476.635C477.045 214.374 477.438 214.211 477.728 213.92C478.018 213.629 478.181 213.234 478.182 212.823V199.542C478.181 199.131 478.018 198.736 477.728 198.445C477.438 198.155 477.045 197.991 476.635 197.991Z" fill="#E6E6E6"/>
<path d="M504.453 107.423H491.204C490.795 107.424 490.403 107.588 490.114 107.879C489.825 108.17 489.663 108.563 489.663 108.974V122.261C489.664 122.671 489.826 123.064 490.115 123.353C490.404 123.643 490.796 123.806 491.204 123.806H504.453C504.862 123.806 505.255 123.644 505.545 123.354C505.835 123.064 505.999 122.671 506 122.261V108.974C505.999 108.563 505.835 108.169 505.546 107.878C505.256 107.588 504.863 107.424 504.453 107.423Z" fill="#E6E6E6"/>
<path d="M504.453 130.065H491.204C490.795 130.066 490.403 130.23 490.114 130.521C489.825 130.812 489.663 131.206 489.663 131.616V144.903C489.664 145.313 489.826 145.706 490.115 145.995C490.404 146.285 490.796 146.448 491.204 146.448H504.453C504.862 146.448 505.255 146.286 505.545 145.996C505.835 145.706 505.999 145.313 506 144.903V131.616C505.999 131.205 505.835 130.811 505.546 130.52C505.256 130.23 504.863 130.066 504.453 130.065Z" fill="#E6E6E6"/>
<path d="M504.453 152.707H491.204C490.795 152.708 490.403 152.872 490.114 153.163C489.825 153.454 489.663 153.848 489.663 154.258V167.539C489.663 167.742 489.702 167.944 489.78 168.132C489.857 168.32 489.97 168.491 490.113 168.635C490.256 168.779 490.426 168.893 490.614 168.972C490.801 169.05 491.002 169.09 491.204 169.09H504.453C504.863 169.09 505.257 168.927 505.547 168.636C505.837 168.345 506 167.95 506 167.539V154.258C505.999 153.847 505.835 153.453 505.546 153.162C505.256 152.872 504.863 152.708 504.453 152.707Z" fill="#6C63FF"/>
<path d="M504.453 175.349H491.204C490.795 175.35 490.403 175.514 490.114 175.805C489.825 176.096 489.663 176.49 489.663 176.9V190.181C489.663 190.384 489.702 190.586 489.78 190.774C489.857 190.962 489.97 191.133 490.113 191.277C490.256 191.421 490.426 191.536 490.614 191.614C490.801 191.692 491.002 191.732 491.204 191.732H504.453C504.863 191.732 505.257 191.569 505.547 191.278C505.837 190.987 506 190.592 506 190.181V176.9C505.999 176.489 505.835 176.095 505.546 175.805C505.256 175.514 504.863 175.35 504.453 175.349Z" fill="#E6E6E6"/>
<path d="M504.453 197.991H491.204C491.002 197.991 490.801 198.031 490.614 198.11C490.426 198.188 490.256 198.302 490.113 198.446C489.97 198.59 489.857 198.761 489.78 198.949C489.702 199.137 489.663 199.339 489.663 199.542V212.823C489.663 213.026 489.702 213.228 489.78 213.416C489.857 213.604 489.97 213.775 490.113 213.919C490.256 214.063 490.426 214.178 490.614 214.256C490.801 214.334 491.002 214.374 491.204 214.374H504.453C504.863 214.374 505.257 214.211 505.547 213.92C505.837 213.629 506 213.234 506 212.823V199.542C506 199.131 505.837 198.736 505.547 198.445C505.257 198.155 504.863 197.991 504.453 197.991Z" fill="#E6E6E6"/>
<path d="M199.95 393.805H199.58L199.896 393.763L199.95 393.805Z" fill="#2F2E41"/>
<path d="M168.251 146.207C190.699 146.207 208.897 127.956 208.897 105.444C208.897 82.9312 190.699 64.681 168.251 64.681C145.803 64.681 127.605 82.9312 127.605 105.444C127.605 127.956 145.803 146.207 168.251 146.207Z" fill="#FFB6B6"/>
<path d="M203.846 75.5572C203.846 75.5572 214.477 55.1759 191.089 53.323C191.089 53.323 171.15 35.1841 150.827 50.0069C150.827 50.0069 139.742 50.0069 133.68 62.5872C133.68 62.5872 124.962 59.2712 123.046 68.1458C123.046 68.1458 116.666 86.6744 123.046 103.35C129.425 120.026 131.544 121.879 131.544 121.879C131.544 121.879 121.061 86.9171 146.578 85.0642C172.094 83.2113 200.648 67.2194 202.775 87.6007C204.901 107.982 208.101 113.004 208.101 113.004C208.101 113.004 228.298 83.8951 203.846 75.5572Z" fill="#2F2E41"/>
<path d="M273.393 205.902L273.262 206.594L271.793 214.374L261.638 268.19L261.037 271.358L259.776 278.058L258.05 287.199L254.225 307.454L253.13 313.26L252.72 315.437L252.577 316.201L251.441 322.209L251.096 324.023L248.323 344.624L245.902 362.577L254.005 370.703L249.174 375.547L246.003 393.763L246.009 393.804H116.597C111.361 390.404 106.202 386.897 101.117 383.286L102.182 375.291C102.182 375.291 105.847 361.014 104.306 359.307C102.771 357.601 99.4035 354.552 99.4035 354.552L103.645 344.624L104.234 343.246L103.247 322.704L103.223 322.209L102.896 315.437L102.854 314.566L102.789 313.259L101.533 287.199L101.51 286.769L101.129 278.87L100.772 271.358L100.617 268.19L99.0884 236.491L98.0532 214.965L97.1489 196.225L100.784 194.99L139.662 181.739L155.766 160.743L189.284 160.994L205.692 161.119L233.07 186.583L239.299 189.566L239.346 189.59L243.814 191.732L255.141 197.156L267.117 202.895L273.262 205.837L273.393 205.902Z" fill="#CACACA"/>
<path d="M160.098 332.651C157.641 333.605 155.006 334.008 152.378 333.83C149.75 333.653 147.193 332.899 144.886 331.624C142.58 330.348 140.581 328.58 139.029 326.446C137.477 324.311 136.411 321.861 135.906 319.268L72.5122 310.249L94.5496 285.249L151.371 297.647C155.77 297.084 160.222 298.159 163.884 300.668C167.545 303.178 170.162 306.947 171.237 311.261C172.313 315.576 171.773 320.137 169.72 324.079C167.667 328.021 164.243 331.071 160.098 332.651Z" fill="#FFB6B6"/>
<path d="M131.833 287.199C130.658 285.706 128.996 284.677 127.139 284.293L101.129 278.87L98.4577 278.315C96.9054 277.99 95.4389 277.34 94.1543 276.408C92.8698 275.475 91.796 274.281 91.0034 272.904C90.1812 271.458 89.6837 269.849 89.5458 268.19C89.4218 266.682 89.6019 265.164 90.0753 263.727L99.0883 236.491L104.936 218.819C105.645 216.688 106.063 214.47 106.18 212.226C106.506 206.017 104.59 199.898 100.784 194.99C97.4376 190.676 92.7964 187.555 87.546 186.09C82.2955 184.625 76.7143 184.892 71.6269 186.852C71.4782 186.906 71.3235 186.965 71.1747 187.025C67.5263 188.486 64.2666 190.778 61.6534 193.72C59.0401 196.661 57.1448 200.172 56.1174 203.975L49.7637 227.154L36.6576 274.938C35.3456 279.726 35.0806 284.741 35.8806 289.641C36.6806 294.54 38.5268 299.209 41.2928 303.327C44.0588 307.445 47.6793 310.915 51.9065 313.499C56.1337 316.084 60.8678 317.722 65.7848 318.301L103.247 322.704L120.583 324.745C122.587 324.986 124.609 324.462 126.245 323.275C127.881 322.089 129.012 320.328 129.411 318.343C129.439 318.235 129.461 318.125 129.477 318.015L129.893 315.437L133.421 293.732L133.457 293.511C133.64 292.403 133.591 291.27 133.311 290.182C133.031 289.095 132.528 288.079 131.833 287.199Z" fill="#CACACA"/>
<path d="M200.477 333.347C203.043 333.944 205.708 333.97 208.285 333.423C210.862 332.875 213.288 331.768 215.392 330.178C217.496 328.589 219.227 326.557 220.462 324.224C221.698 321.891 222.409 319.315 222.545 316.677L284.037 298.782L258.704 277.148L204.194 297.458C199.76 297.523 195.504 299.217 192.231 302.219C188.959 305.221 186.899 309.323 186.441 313.746C185.982 318.17 187.158 322.609 189.745 326.221C192.332 329.834 196.151 332.369 200.477 333.347Z" fill="#FFB6B6"/>
<path d="M314.568 258.752L285.321 191.249C282.929 185.707 278.657 181.194 273.262 178.511C271.595 177.688 269.844 177.048 268.039 176.602C267.759 176.53 267.48 176.465 267.2 176.411C263.373 175.573 259.404 175.647 255.611 176.626C252.144 177.519 248.903 179.135 246.101 181.369C243.298 183.603 240.996 186.404 239.346 189.59C239.328 189.617 239.312 189.645 239.299 189.674C237.455 193.25 236.475 197.211 236.436 201.237C236.398 205.263 237.303 209.242 239.078 212.853L239.441 213.581L260.109 255.208C260.814 256.631 261.212 258.188 261.276 259.776C261.339 261.365 261.067 262.949 260.477 264.424C259.887 265.9 258.993 267.234 257.853 268.338C256.713 269.443 255.353 270.293 253.862 270.833L252.41 271.358L226.305 280.815C224.347 281.516 222.735 282.952 221.811 284.82C220.887 286.689 220.721 288.844 221.35 290.832L221.415 291.041L228.733 314.524C228.768 314.632 228.804 314.739 228.846 314.846C228.91 315.049 228.99 315.247 229.084 315.437C229.861 317.186 231.236 318.6 232.96 319.423C234.684 320.247 236.645 320.427 238.489 319.93L252.577 316.201L255.45 315.437L291.83 305.802C296.616 304.533 301.073 302.242 304.895 299.086C308.717 295.929 311.814 291.982 313.973 287.514C316.132 283.045 317.304 278.162 317.406 273.198C317.509 268.233 316.54 263.306 314.568 258.752Z" fill="#CACACA"/>
<path d="M26.7106 315.437C35.1408 325.749 44.2326 335.499 53.928 344.624H322.813C325.403 344.628 327.887 345.663 329.718 347.5C331.549 349.338 332.579 351.829 332.581 354.427L332.968 422.759C349.51 415.137 365 405.405 379.056 393.804C382.959 390.589 386.741 387.234 390.401 383.739C392.799 381.46 395.139 379.125 397.422 376.735C414.534 358.857 428.39 338.111 438.364 315.437H26.7106Z" fill="#3F3D56"/>
<path d="M397.422 376.735C395.143 379.127 392.803 381.462 390.402 383.739H333.165V376.735H397.422Z" fill="white"/>
<path d="M272.858 152.707C272.575 152.183 272.157 151.746 271.647 151.442C271.137 151.137 270.554 150.977 269.961 150.977H74.9228C74.0484 150.979 73.2105 151.329 72.5927 151.949C71.9749 152.57 71.6277 153.411 71.627 154.288V271.358H273.262V154.288C273.265 153.735 273.126 153.19 272.858 152.707Z" fill="#3F3D56"/>
<path d="M71.4503 268.189V282.635C71.4503 283.234 71.5679 283.827 71.7965 284.381C72.025 284.934 72.3599 285.437 72.7822 285.86C73.2045 286.284 73.7058 286.62 74.2575 286.849C74.8093 287.078 75.4006 287.196 75.9978 287.196H150.42V315.707H149.431C149.354 315.707 149.277 315.722 149.205 315.752C149.134 315.782 149.068 315.825 149.014 315.88C148.959 315.935 148.915 316.001 148.886 316.073C148.856 316.144 148.841 316.221 148.841 316.299V318.282C148.841 318.36 148.856 318.437 148.886 318.509C148.915 318.581 148.959 318.646 149.014 318.701C149.068 318.756 149.134 318.8 149.205 318.83C149.277 318.859 149.354 318.875 149.431 318.875H195.632C195.709 318.875 195.786 318.859 195.858 318.83C195.929 318.8 195.995 318.756 196.049 318.701C196.104 318.646 196.148 318.581 196.177 318.509C196.207 318.437 196.222 318.36 196.222 318.282V316.299C196.222 316.221 196.207 316.144 196.177 316.073C196.148 316.001 196.104 315.935 196.049 315.88C195.995 315.825 195.929 315.782 195.858 315.752C195.786 315.722 195.709 315.707 195.632 315.707H194.643V287.196H269.065C269.662 287.196 270.254 287.078 270.805 286.849C271.357 286.62 271.859 286.284 272.281 285.86C272.703 285.437 273.038 284.934 273.267 284.381C273.495 283.827 273.613 283.234 273.613 282.635V268.189H71.4503Z" fill="#3F3D56"/>
<path d="M170.089 226.725C180.375 226.725 188.713 218.362 188.713 208.047C188.713 197.731 180.375 189.368 170.089 189.368C159.803 189.368 151.464 197.731 151.464 208.047C151.464 218.362 159.803 226.725 170.089 226.725Z" fill="#6C63FF"/>
<path d="M217.542 103.216H214.568C214.568 80.6639 192.312 65.8854 169.86 65.8735C166.594 65.8639 163.335 66.1817 160.133 66.8221C156.528 67.544 152.785 68.4092 149.109 69.5368C134.611 73.9936 121.166 82.6089 121.166 103.216C121.163 107.219 121.67 111.205 122.677 115.077L119.797 115.829C118.729 111.711 118.19 107.472 118.191 103.216C118.191 85.2102 125.562 72.8421 138.293 65.4678C144.986 61.5897 153.154 59.0898 162.512 57.8727C166.407 57.3531 170.344 57.2332 174.262 57.5147C200.081 59.3762 217.542 79.232 217.542 103.216Z" fill="#6C63FF"/>
<path d="M222.498 104.869L221.326 96.1822C221.037 93.9884 219.983 91.968 218.351 90.4784C217.304 89.5074 216.05 88.788 214.684 88.3745C213.319 87.9611 211.877 87.8644 210.469 88.0919L208.607 88.3485C208.097 88.4157 207.606 88.5838 207.162 88.8429C206.717 89.102 206.329 89.4471 206.019 89.8579C205.706 90.2675 205.477 90.7351 205.345 91.2338C205.213 91.7325 205.182 92.2524 205.251 92.7635L207.958 112.774C208.07 113.59 208.434 114.35 209 114.946C209.566 115.543 210.304 115.945 211.111 116.098C211.35 116.146 211.593 116.17 211.837 116.169C212.012 116.169 212.187 116.157 212.361 116.133L214.443 115.853C215.712 115.684 216.934 115.257 218.033 114.597C219.131 113.937 220.084 113.059 220.832 112.017C220.993 111.79 221.147 111.557 221.29 111.319C222.405 109.366 222.831 107.094 222.498 104.869Z" fill="#6C63FF"/>
<path d="M207.405 88.7124C206.859 88.9786 206.384 89.3712 206.019 89.858C205.706 90.2675 205.477 90.7351 205.345 91.2338C205.213 91.7325 205.182 92.2524 205.251 92.7636L207.958 112.774C208.07 113.59 208.434 114.35 209 114.946C209.566 115.543 210.304 115.945 211.111 116.098L207.405 88.7124Z" fill="white"/>
<path d="M222.498 104.869L221.326 96.1822C221.037 93.9884 219.983 91.9679 218.351 90.4784L221.046 110.388C221.087 110.708 221.169 111.02 221.29 111.319C222.405 109.366 222.831 107.094 222.498 104.869Z" fill="#3F3D56"/>
<path d="M213.235 111.128C214.049 111.017 214.458 109.075 214.149 106.789C213.84 104.504 212.93 102.74 212.116 102.851C211.302 102.962 210.892 104.905 211.202 107.19C211.511 109.476 212.421 111.239 213.235 111.128Z" fill="#3F3D56"/>
<path d="M211.451 100.389C212.265 100.278 212.674 98.3355 212.365 96.0499C212.055 93.7642 211.145 92.0011 210.331 92.1119C209.517 92.2226 209.108 94.1652 209.417 96.4509C209.726 98.7365 210.637 100.5 211.451 100.389Z" fill="#3F3D56"/>
<path d="M222.754 104.565C223.568 104.455 223.977 102.512 223.668 100.226C223.359 97.9406 222.448 96.1775 221.634 96.2883C220.82 96.399 220.411 98.3417 220.72 100.627C221.03 102.913 221.94 104.676 222.754 104.565Z" fill="#3F3D56"/>
<path d="M169.86 65.8735C166.594 65.8639 163.335 66.1817 160.133 66.8221C156.528 67.544 152.786 68.4091 149.109 69.5368C143.368 69.2564 139.144 67.7648 138.293 65.4678C144.986 61.5897 153.154 59.0898 162.512 57.8727C166.407 57.3531 170.344 57.2332 174.262 57.5147C174.677 57.7586 175.036 58.0877 175.314 58.4806C175.593 58.8734 175.786 59.3209 175.88 59.7938C176.16 61.8701 173.798 64.0776 169.86 65.8735Z" fill="#3F3D56"/>
<path d="M131.88 123.919L127.299 104.821C127.136 104.132 126.773 103.507 126.257 103.024C125.74 102.541 125.093 102.222 124.396 102.107C124.199 102.076 124 102.06 123.801 102.059C123.521 102.06 123.241 102.094 122.968 102.16L121.195 102.59C118.913 103.144 116.942 104.583 115.717 106.592C114.491 108.601 114.11 111.015 114.657 113.305L116.71 121.873C117.178 123.89 118.295 125.697 119.887 127.016C120.145 127.225 120.415 127.418 120.696 127.595C121.693 128.222 122.805 128.642 123.967 128.83C125.129 129.019 126.316 128.972 127.46 128.693L129.227 128.263C129.694 128.154 130.134 127.948 130.518 127.66C131.089 127.243 131.524 126.664 131.766 125.998C132.009 125.332 132.049 124.608 131.88 123.919Z" fill="#6C63FF"/>
<path d="M122.277 120.366C123.075 120.173 123.287 118.199 122.748 115.957C122.21 113.714 121.127 112.052 120.328 112.245C119.529 112.438 119.318 114.412 119.856 116.655C120.395 118.897 121.478 120.559 122.277 120.366Z" fill="#3F3D56"/>
<path d="M116.328 122.156C117.126 121.963 117.337 119.989 116.799 117.746C116.261 115.504 115.178 113.842 114.379 114.035C113.58 114.228 113.369 116.202 113.907 118.444C114.445 120.687 115.529 122.349 116.328 122.156Z" fill="#3F3D56"/>
<path d="M132.172 123.848L127.591 104.75C127.412 104.004 127.019 103.328 126.459 102.806C125.899 102.284 125.198 101.939 124.444 101.814L130.696 127.899C131.314 127.445 131.783 126.819 132.046 126.098C132.309 125.377 132.352 124.594 132.172 123.848Z" fill="white"/>
<path d="M115.692 109.523C115.566 108.992 115.329 108.494 114.996 108.061C114.352 109.734 114.234 111.564 114.657 113.305L116.71 121.873C117.178 123.89 118.295 125.697 119.887 127.016L115.692 109.523Z" fill="#3F3D56"/>
</g>
<defs>
<clipPath id="clip0_1_150">
<rect width="506" height="442" fill="white"/>
</clipPath>
</defs>
</svg>
